<svg xmlns="http://www.w3.org/2000/svg" width="33.111" height="31.333" viewBox="0 0 33.111 31.333">
  <g id="Handheart" transform="translate(0 0)">
    <g id="Handheart-2" data-name="Handheart" transform="translate(0 0)">
      <path id="Union_95" data-name="Union 95" d="M19.8,30.058A17.748,17.748,0,0,1,7.466,25.073L1.078,19.149a3.593,3.593,0,0,1,2.483-6.16h.033A3.579,3.579,0,0,1,6.094,14l5,4.569.083-.2a3.612,3.612,0,0,1,3.16-2.187h2.4v-.016h9.735A5.231,5.231,0,0,1,31.7,21.4v2.9a1.092,1.092,0,1,1-2.184,0V21.4a3.047,3.047,0,0,0-3.047-3.046h-12a1.407,1.407,0,0,0-1.093,2.3l.266.249.031.032h.017a1.392,1.392,0,0,0,.794.249h6.259a1.092,1.092,0,0,1,0,2.185H14.472a3.6,3.6,0,0,1-2.632-1.158L4.6,15.606l-.034-.033a1.411,1.411,0,0,0-1.987,2l6.391,5.909A15.5,15.5,0,0,0,19.8,27.874H25.91a1.092,1.092,0,1,1,0,2.185ZM15.745,13.023,10.514,7.842H10.5A4.506,4.506,0,0,1,16.557,1.17,4.5,4.5,0,0,1,22.6,7.825h-.016l-5.214,5.181a1.138,1.138,0,0,1-1.623.017ZM13.471,2.413a2.187,2.187,0,0,0-1.385,3.724l.033.033,4.438,4.386L20.993,6.17l.033-.033a2.186,2.186,0,1,0-3.444-2.6,1.158,1.158,0,0,1-2.035,0,2.187,2.187,0,0,0-1.917-1.13C13.577,2.407,13.525,2.409,13.471,2.413Z" fill="#3f3f3f"/>
      <path id="Path_9235" data-name="Path 9235" d="M175.8,162.2a2.4,2.4,0,1,1-2.4-2.4,2.4,2.4,0,0,1,2.4,2.4" transform="translate(-142.69 -133.268)" fill="#00c53c"/>
    </g>
  </g>
</svg>
