<svg id="Happy" xmlns="http://www.w3.org/2000/svg" width="32.001" height="32" viewBox="0 0 32.001 32">
  <g id="Group_3681" data-name="Group 3681" transform="translate(0)">
    <path id="Path_9406" data-name="Path 9406" d="M28.276,160.888a2.688,2.688,0,1,1-2.688-2.688,2.688,2.688,0,0,1,2.688,2.688" transform="translate(-19.238 -132.893)" fill="#00c53c"/>
    <path id="Union_108" data-name="Union 108" d="M10.816,31.136a1.263,1.263,0,0,1,.816-2.383,13.473,13.473,0,1,0-7.056-5.6,1.265,1.265,0,0,1-2.145,1.328,16.012,16.012,0,1,1,8.384,6.655ZM6.639,19.84a1.2,1.2,0,0,1,2.272-.783,7.488,7.488,0,0,0,14.161,0,1.2,1.2,0,1,1,2.271.783A9.885,9.885,0,0,1,16,26.512h-.011A9.886,9.886,0,0,1,6.639,19.84ZM18.881,13.5a.992.992,0,0,1-.833-1.137,3.6,3.6,0,0,1,7.1,0,.992.992,0,0,1-1.952.305,1.615,1.615,0,0,0-3.183,0,.993.993,0,0,1-.977.832Zm-6.4,0a.991.991,0,0,1-.975-.832,1.617,1.617,0,0,0-3.186,0,.991.991,0,0,1-1.951-.305,3.6,3.6,0,0,1,7.1,0A.993.993,0,0,1,12.64,13.5Z" fill="#3f3f3f"/>
  </g>
</svg>
