<svg id="hoja1" xmlns="http://www.w3.org/2000/svg" width="12.082" height="16" viewBox="0 0 12.082 16">
  <g id="hoja1-2" data-name="hoja1">
    <path id="Path_2399" data-name="Path 2399" d="M21.3,15.072H15.006a.712.712,0,0,1,0-1.423h5.581V5.6L16.413,1.423h-4.19V11.2a.712.712,0,0,1-1.423,0V.712A.712.712,0,0,1,11.512,0h5.2a.712.712,0,0,1,.5.208L21.8,4.8a.712.712,0,0,1,.208.5v9.059a.712.712,0,0,1-.712.712Z" transform="translate(-9.928 0)" fill="#3f3f3f"/>
    <path id="Path_2400" data-name="Path 2400" d="M3.114,161.5a1.6,1.6,0,1,0,0,.008" transform="translate(0.1 -147.114)" fill="#00c83c"/>
  </g>
</svg>
