<svg xmlns="http://www.w3.org/2000/svg" width="16" height="15.554" viewBox="0 0 16 15.554">
  <g id="home" transform="translate(8 7.777)">
    <g id="home-2" data-name="home" transform="translate(-8 -7.777)">
      <path id="Path_4539" data-name="Path 4539" d="M18.9,161.952a1.352,1.352,0,1,1-1.352-1.352,1.352,1.352,0,0,1,1.352,1.352" transform="translate(-14.898 -147.75)" fill="#3f3f3f"/>
      <path id="Path_4540" data-name="Path 4540" d="M15.514,4.89,8.546.154A.952.952,0,0,0,7.474.146L.361,4.882A.96.96,0,0,0,.9,6.642H1.954v4.784a.636.636,0,0,0,1.272,0V6.642h9.641v4.864a2.008,2.008,0,0,1-1.48,1.928V9.578A1.512,1.512,0,0,0,9.874,8.066H8.834A1.512,1.512,0,0,0,7.322,9.578v3.936H5.242a.636.636,0,0,0,0,1.272h5.616a3.28,3.28,0,0,0,3.28-3.28V6.642h.84a.96.96,0,0,0,.536-1.752ZM8.586,9.578a.24.24,0,0,1,.24-.24h1.04a.24.24,0,0,1,.24.24v3.936H8.586ZM8,1.322,13.97,5.378H1.922Z" transform="translate(0.068 0.016)" fill="#fff"/>
    </g>
  </g>
</svg>
