<svg xmlns="http://www.w3.org/2000/svg" width="26" height="26" viewBox="0 0 26 26">
  <g id="Group_12953" data-name="Group 12953" transform="translate(-582 -18)">
    <rect id="Rectangle_1869" data-name="Rectangle 1869" width="26" height="26" rx="5" transform="translate(582 18)" fill="#00c83c"/>
    <g id="question" transform="translate(586.062 22.063)">
      <g id="Group_921" data-name="Group 921" transform="translate(0)">
        <path id="Path_2611" data-name="Path 2611" d="M25.589,159.544a1.344,1.344,0,1,1-1.344-1.344,1.344,1.344,0,0,1,1.344,1.344" transform="translate(-19.905 -144.014)" fill="#fff"/>
        <path id="Union_11" data-name="Union 11" d="M6.084,17.513a.711.711,0,0,1,.458-1.341,7.578,7.578,0,1,0-3.968-3.15.711.711,0,0,1-1.206.747,9.009,9.009,0,1,1,4.716,3.744Zm1.728-4.347V13.14a1.076,1.076,0,0,1,2.151,0v.018a1.071,1.071,0,0,1-1.071,1.071H8.883A1.072,1.072,0,0,1,7.811,13.166Zm.063-1.953v-.306a3.146,3.146,0,0,1,.09-.774,2.862,2.862,0,0,1,.208-.585,1.977,1.977,0,0,1,.343-.468,3.646,3.646,0,0,1,.369-.351L9.3,8.424l.387-.288a3.585,3.585,0,0,0,.289-.279,1.02,1.02,0,0,0,.233-.378,1.384,1.384,0,0,0,.072-.45,1.169,1.169,0,0,0-.368-.9,1.282,1.282,0,0,0-.9-.342,1.4,1.4,0,0,0-.936.342,1.2,1.2,0,0,0-.423.954H5.75a3.278,3.278,0,0,1,.289-1.359,2.711,2.711,0,0,1,.746-.981A3.43,3.43,0,0,1,7.82,4.167a3.644,3.644,0,0,1,2.4.009,3.313,3.313,0,0,1,1.026.585,2.737,2.737,0,0,1,.729.972,3.111,3.111,0,0,1,.27,1.3,3.323,3.323,0,0,1-.054.594,1.955,1.955,0,0,1-.162.5,3.359,3.359,0,0,1-.216.387,1.816,1.816,0,0,1-.288.342l-.3.27-.325.261-.386.315a2.972,2.972,0,0,0-.3.306,1.219,1.219,0,0,0-.235.415,1.53,1.53,0,0,0-.071.477v.306Z" transform="translate(-0.063 -0.063)" fill="#fff"/>
      </g>
    </g>
  </g>
</svg>
