<svg xmlns="http://www.w3.org/2000/svg" width="42.28" height="42.281" viewBox="0 0 42.28 42.281">
  <path id="Icon_awesome-medal" data-name="Icon awesome-medal" d="M18.477,10.8,12.768,1.283A2.642,2.642,0,0,0,10.5,0H1.324A1.321,1.321,0,0,0,.241,2.079L9.43,15.206A17.09,17.09,0,0,1,18.477,10.8ZM40.957,0H31.778a2.642,2.642,0,0,0-2.266,1.283L23.8,10.8a17.1,17.1,0,0,1,9.047,4.408L42.039,2.079A1.321,1.321,0,0,0,40.957,0ZM21.14,13.213A14.534,14.534,0,1,0,35.674,27.747,14.534,14.534,0,0,0,21.14,13.213ZM28.781,26.2l-3.132,3.052.741,4.312a.948.948,0,0,1-1.375,1L21.14,32.526l-3.873,2.036a.948.948,0,0,1-1.375-1l.741-4.312L13.5,26.2a.948.948,0,0,1,.524-1.618l4.33-.631,1.935-3.924a.95.95,0,0,1,1.7,0l1.935,3.924,4.33.631A.948.948,0,0,1,28.781,26.2Z" transform="translate(0)" fill="#fe9201"/>
</svg>
