<svg xmlns="http://www.w3.org/2000/svg" width="16" height="15.999" viewBox="0 0 16 15.999">
  <g id="money" transform="translate(8 8)">
    <g id="money-2" data-name="money" transform="translate(-8 -8)">
      <path id="Path_15692" data-name="Path 15692" d="M24.907,153.353A1.353,1.353,0,1,1,23.553,152a1.353,1.353,0,0,1,1.353,1.353" transform="translate(-20.418 -139.747)" fill="#0ac53d"/>
      <path id="Path_15693" data-name="Path 15693" d="M60.977,37.276h-.765v-1.45h2.07a.636.636,0,0,0,0-1.273H60.2V33.336a.636.636,0,1,0-1.273,0v1.216h-.677a2,2,0,0,0,0,4h.685v1.482h-2.1a.636.636,0,0,0,0,1.273h2.095v1.49a.636.636,0,1,0,1.273,0V41.3h.765a2,2,0,0,0,2-2v-.024A2,2,0,0,0,60.977,37.276Zm-2.723,0a.725.725,0,0,1,0-1.45h.685v1.45ZM61.7,39.3a.725.725,0,0,1-.725.725h-.765V38.549h.765a.725.725,0,0,1,.725.725Z" transform="translate(-51.679 -30.057)" fill="#3f3f3f"/>
      <path id="Path_15694" data-name="Path 15694" d="M8.068,15.9a7.959,7.959,0,0,1-2.892-.54A.566.566,0,0,1,5.587,14.3a6.872,6.872,0,1,0-3.44-2.932.565.565,0,0,1-.975.572,8,8,0,1,1,6.9,3.955Z" transform="translate(-0.074 0.102)" fill="#3f3f3f"/>
    </g>
  </g>
</svg>
