<svg xmlns="http://www.w3.org/2000/svg" width="16" height="15.274" viewBox="0 0 16 15.274">
  <g id="star" transform="translate(8 7.637)">
    <g id="star-2" data-name="star" transform="translate(-8 -7.637)">
      <path id="Path_15686" data-name="Path 15686" d="M33.643,160.471a1.271,1.271,0,1,1-1.271-1.271,1.271,1.271,0,0,1,1.271,1.271" transform="translate(-28.609 -146.468)" fill="#00c73c"/>
      <path id="Path_15687" data-name="Path 15687" d="M12.579,15.209a.5.5,0,0,1-.232-.056l-4.4-2.311-1.319.7a.506.506,0,1,1-.472-.9l1.551-.816a.5.5,0,0,1,.472,0L11.9,13.786l-.712-4.142a.5.5,0,0,1,.144-.448l3.006-2.935-4.15-.608a.5.5,0,0,1-.384-.28L7.949,1.608,6.086,5.374a.5.5,0,0,1-.376.28l-4.158.608L4.559,9.2a.5.5,0,0,1,.144.448l-.328,1.911a.507.507,0,1,1-1-.168l.288-1.655L.105,6.262A.5.5,0,0,1,.385,5.4l4.91-.712L7.494.233a.532.532,0,0,1,.912,0l2.2,4.454,4.91.712a.5.5,0,0,1,.28.864l-3.558,3.47.84,4.894a.5.5,0,0,1-.5.592Z" transform="translate(0.051 0.025)" fill="#3f3f3f"/>
      <path id="Path_15688" data-name="Path 15688" d="M42.1,184.2" transform="translate(-38.73 -169.469)" fill="none" stroke="#3f3f3f" stroke-linecap="round" stroke-linejoin="round" stroke-width="2"/>
    </g>
  </g>
</svg>
