<svg xmlns="http://www.w3.org/2000/svg" width="16" height="14.579" viewBox="0 0 16 14.579">
  <g id="talk2" transform="translate(8 7.289)">
    <g id="talk2-2" data-name="talk2" transform="translate(-8 -7.289)">
      <path id="Path_15698" data-name="Path 15698" d="M8.7,14.529H.566a.567.567,0,0,1-.4-.964l2.4-2.4A7.294,7.294,0,1,1,16,7.241a7.223,7.223,0,0,1-.615,2.931.567.567,0,0,1-1.036-.453,6.159,6.159,0,1,0-11.8-2.478,6.1,6.1,0,0,0,1.2,3.652.567.567,0,0,1-.057.737L1.934,13.4H8.7a6.146,6.146,0,0,0,1.935-.308.567.567,0,1,1,.356,1.077A7.279,7.279,0,0,1,8.7,14.529Z" transform="translate(0.001 0.05)" fill="#3f3f3f"/>
      <path id="Path_15699" data-name="Path 15699" d="M147.388,134.266a1.393,1.393,0,1,1-1.417-1.368,1.393,1.393,0,0,1,1.417,1.368" transform="translate(-132.894 -122.132)" fill="#00c73c"/>
    </g>
  </g>
</svg>
