<svg xmlns="http://www.w3.org/2000/svg" width="15.967" height="16" viewBox="0 0 15.967 16">
  <g id="Tool" transform="translate(7.984 8)">
    <g id="Tool-2" data-name="Tool" transform="translate(-7.984 -8)">
      <path id="Path_15594" data-name="Path 15594" d="M3.591,16.025a3.494,3.494,0,0,1-.865-.107.775.775,0,0,1-.569-.536.8.8,0,0,1,.2-.791l1.2-1.2h.016a.552.552,0,0,0,.173-.428.585.585,0,0,0-.222-.428.61.61,0,0,0-.791.091L1.556,13.783a.791.791,0,0,1-.75.206.783.783,0,0,1-.569-.536v-.025a3.5,3.5,0,0,1,.915-3.362,3.444,3.444,0,0,1,2.95-1L9.162,4.011a3.543,3.543,0,0,1,1-2.95A3.486,3.486,0,0,1,13.488.13a.775.775,0,0,1,.569.536.8.8,0,0,1-.2.791l-1.2,1.211h-.008a.552.552,0,0,0-.173.428.585.585,0,0,0,.222.428.618.618,0,0,0,.791-.091l1.17-1.17a.8.8,0,0,1,1.318.338v.025a3.469,3.469,0,0,1-.915,3.354,3.444,3.444,0,0,1-2.95,1l-.593.593a.577.577,0,0,1-.816-.816l.808-.808a.577.577,0,0,1,.552-.157,2.357,2.357,0,0,0,2.884-2.167l-.643.643a1.763,1.763,0,0,1-2.3.2h-.016a1.747,1.747,0,0,1-.676-1.285,1.714,1.714,0,0,1,.519-1.318l.667-.667a2.307,2.307,0,0,0-1.541.684,2.381,2.381,0,0,0-.634,2.2.577.577,0,0,1-.157.536L4.7,10.092a.577.577,0,0,1-.536.157,2.315,2.315,0,0,0-2.192.626,2.348,2.348,0,0,0-.692,1.566l.643-.643a1.763,1.763,0,0,1,2.3-.2h.016a1.747,1.747,0,0,1,.659,1.285A1.714,1.714,0,0,1,4.374,14.2l-.667.667a2.34,2.34,0,0,0,2.175-2.892.577.577,0,0,1,.148-.544l.8-.8a.577.577,0,1,1,.816.816l-.585.585A3.543,3.543,0,0,1,6.08,15a3.535,3.535,0,0,1-2.488,1.022Z" transform="translate(-0.124 -0.025)" fill="#3f3f3f"/>
      <path id="Path_15595" data-name="Path 15595" d="M95.384,94.042A1.442,1.442,0,1,1,93.942,92.6,1.442,1.442,0,0,1,95.384,94.042Z" transform="translate(-84.888 -84.972)" fill="#00c83c"/>
    </g>
  </g>
</svg>
