<svg id="Trofeo" xmlns="http://www.w3.org/2000/svg" width="32" height="34.222" viewBox="0 0 32 34.222">
  <g id="Group_3583" data-name="Group 3583">
    <path id="Path_9124" data-name="Path 9124" d="M83.885,2A1.985,1.985,0,1,1,83.9,2" transform="translate(-65.9 0)" fill="#0ac33d"/>
    <path id="Path_9125" data-name="Path 9125" d="M31.773,11.831a4.713,4.713,0,0,0-1.1-1.839A4.566,4.566,0,0,0,26.827,8.7a4.447,4.447,0,0,0-1.4.46V7.624A1.127,1.127,0,0,0,24.294,6.5H20.033a1.124,1.124,0,1,0,0,2.248h3.132v8.771a7.154,7.154,0,0,1-14.307,0V8.748h3.2a1.124,1.124,0,1,0,0-2.248H7.745A1.127,1.127,0,0,0,6.616,7.624V9.14a4.447,4.447,0,0,0-1.4-.46A4.566,4.566,0,0,0,1.362,9.991,4.713,4.713,0,0,0,.25,11.831a5.02,5.02,0,0,0,.616,4.326,7.428,7.428,0,0,0,2.5,2.163l.839.46a14.372,14.372,0,0,1,1.523.92,3.482,3.482,0,0,1,1.318,1.584,1.164,1.164,0,0,1-.274,1.379,1.186,1.186,0,0,1-1.147.1A2.27,2.27,0,0,1,4.511,21.64a1.129,1.129,0,0,0-2.019.988,4.457,4.457,0,0,0,2.276,2.2,3.592,3.592,0,0,0,1.352.255,3.279,3.279,0,0,0,2.088-.715,3.069,3.069,0,0,0,.667-.783,9.432,9.432,0,0,0,4.244,2.827V30.7H11.7a1.127,1.127,0,0,0-1.129,1.124V33.8H8.344a1.127,1.127,0,0,0-1.129,1.124V38.33a1.127,1.127,0,0,0,1.129,1.124H23.678a1.127,1.127,0,0,0,1.129-1.124V34.924A1.127,1.127,0,0,0,23.678,33.8H21.453V31.842a1.127,1.127,0,0,0-1.129-1.124H18.9V26.426A9.432,9.432,0,0,0,23.148,23.6a3.069,3.069,0,0,0,.667.783A3.279,3.279,0,0,0,25.9,25.1a3.592,3.592,0,0,0,1.352-.255,4.457,4.457,0,0,0,2.276-2.2,1.129,1.129,0,0,0-2.019-.988A2.27,2.27,0,0,1,26.4,22.781a1.186,1.186,0,0,1-1.147-.1,1.322,1.322,0,0,1-.274-1.379A4.033,4.033,0,0,1,26.3,19.716a14.373,14.373,0,0,1,1.506-.9l.839-.46a7.27,7.27,0,0,0,2.5-2.163,5.021,5.021,0,0,0,.633-4.36ZM5.281,16.821l-.787-.443a5.138,5.138,0,0,1-1.763-1.465,2.815,2.815,0,0,1-.325-2.4,2.467,2.467,0,0,1,.565-.954,2.3,2.3,0,0,1,1.917-.647A2.293,2.293,0,0,1,6.53,12.069l.086.119v5.4C6.171,17.3,5.726,17.059,5.281,16.821Zm10.1,10.031h1.284v3.866H15.378Zm7.171,9.2v1.158H9.474V36.048Zm-3.354-3.1V33.8H12.828v-.852ZM29.291,14.9a4.956,4.956,0,0,1-1.763,1.465l-.787.443c-.445.238-.89.477-1.335.766V12.205l.086-.119a2.231,2.231,0,0,1,3.56-.511,2.467,2.467,0,0,1,.565.954,2.815,2.815,0,0,1-.308,2.384Z" transform="translate(-0.012 -5.232)" fill="#3f3f3f"/>
  </g>
</svg>
