<svg id="comp_faq" data-name="comp faq" xmlns="http://www.w3.org/2000/svg" width="32" height="32" viewBox="0 0 32 32">
  <rect id="Rectangle_1870" data-name="Rectangle 1870" width="32" height="32" rx="16" fill="#fe9200"/>
  <g id="question" transform="translate(5.4 5.4)">
    <g id="Group_921" data-name="Group 921" transform="translate(0)">
      <path id="Path_2611" data-name="Path 2611" d="M26.179,159.84a1.64,1.64,0,1,1-1.64-1.64,1.64,1.64,0,0,1,1.64,1.64" transform="translate(-19.71 -141.358)" fill="#fff"/>
      <path id="Union_11" data-name="Union 11" d="M7.436,21.4A.869.869,0,0,1,8,19.766a9.262,9.262,0,1,0-4.849-3.85.869.869,0,0,1-1.474.913A11.011,11.011,0,1,1,7.436,21.4Zm2.111-5.313V16.06a1.315,1.315,0,0,1,2.629,0v.022a1.309,1.309,0,0,1-1.31,1.309h-.01A1.31,1.31,0,0,1,9.547,16.092Zm.077-2.387v-.374a3.846,3.846,0,0,1,.109-.946,3.5,3.5,0,0,1,.254-.715,2.417,2.417,0,0,1,.419-.572,4.456,4.456,0,0,1,.451-.429l.505-.374.473-.352a4.381,4.381,0,0,0,.353-.341,1.247,1.247,0,0,0,.285-.462,1.692,1.692,0,0,0,.088-.55,1.428,1.428,0,0,0-.45-1.1,1.567,1.567,0,0,0-1.1-.418,1.712,1.712,0,0,0-1.144.418,1.462,1.462,0,0,0-.517,1.165H7.028A4.007,4.007,0,0,1,7.381,7a3.314,3.314,0,0,1,.912-1.2,4.192,4.192,0,0,1,1.265-.7A4.453,4.453,0,0,1,12.5,5.1a4.05,4.05,0,0,1,1.254.715,3.345,3.345,0,0,1,.891,1.188,3.8,3.8,0,0,1,.33,1.595,4.061,4.061,0,0,1-.066.726,2.389,2.389,0,0,1-.2.616,4.1,4.1,0,0,1-.264.473,2.219,2.219,0,0,1-.352.418l-.362.33-.4.319-.472.385a3.633,3.633,0,0,0-.363.374,1.49,1.49,0,0,0-.287.507,1.87,1.87,0,0,0-.087.583v.374Z" transform="translate(-0.4 -0.4)" fill="#fff"/>
    </g>
  </g>
</svg>
