<svg xmlns="http://www.w3.org/2000/svg" width="24.147" height="24" viewBox="0 0 24.147 24">
  <g id="hand3" transform="translate(12.073 12)">
    <g id="hand3-2" data-name="hand3" transform="translate(-12.073 -12)">
      <g id="Group_826" data-name="Group 826" transform="translate(0 10.624)">
        <path id="Path_2261" data-name="Path 2261" d="M21.031,90.316h.133A2.632,2.632,0,0,1,23.47,91.9l.06.145,3.646-3.332A2.608,2.608,0,0,1,29,88h.024a2.62,2.62,0,0,1,1.811,4.491l-4.66,4.322a12.942,12.942,0,0,1-8.994,3.622H12.725a.8.8,0,0,1,0-1.594H17.18a11.3,11.3,0,0,0,7.9-3.2l4.66-4.31a1.029,1.029,0,1,0-1.449-1.461l-.024.024-5.276,4.817a2.632,2.632,0,0,1-1.92.845H16.5a.8.8,0,1,1,0-1.594h4.563a1.026,1.026,0,0,0,.579-.181h.012l.024-.024.193-.181h0a1.026,1.026,0,0,0-.8-1.678H12.315a2.221,2.221,0,0,0-2.221,2.221v2.113a.8.8,0,1,1-1.594,0v-2.1a3.815,3.815,0,0,1,3.815-3.815Z" transform="translate(-7.474 -87.998)" fill="#3f3f3f"/>
        <path id="Path_2262" data-name="Path 2262" d="M0,171.551a1.751,1.751,0,1,0,1.751-1.75A1.75,1.75,0,0,0,0,171.551" transform="translate(0 -159.925)" fill="#00c73c"/>
      </g>
      <g id="Group_827" data-name="Group 827" transform="translate(6.133)">
        <path id="Path_2263" data-name="Path 2263" d="M80.408,23.789a.64.64,0,0,1-.64-.64v-.893H78.44a.64.64,0,0,1,0-1.28h1.328v-.7h-.314a1.618,1.618,0,0,1,0-3.235h.314v-.7a.64.64,0,0,1,1.28,0v.7h1.316a.64.64,0,1,1,0,1.28H81.047V19h.374a1.618,1.618,0,0,1,1.618,1.618v.024a1.618,1.618,0,0,1-1.618,1.618h-.374v.893a.64.64,0,0,1-.64.64Zm1.014-2.813a.338.338,0,0,0,.338-.338v-.024a.338.338,0,0,0-.338-.338h-.374v.7ZM79.454,18.32a.344.344,0,0,0,0,.688h.314V18.32Z" transform="translate(-74.54 -13.805)" fill="#3f3f3f"/>
        <path id="Path_2264" data-name="Path 2264" d="M56.74,11.879a5.94,5.94,0,1,1,5.94-5.94,5.94,5.94,0,0,1-5.94,5.94Zm0-10.708A4.769,4.769,0,1,0,61.508,5.94,4.769,4.769,0,0,0,56.74,1.171Z" transform="translate(-50.8)" fill="#3f3f3f"/>
      </g>
    </g>
  </g>
</svg>
