<svg xmlns="http://www.w3.org/2000/svg" width="24" height="24" viewBox="0 0 24 24">
  <g id="Happy" transform="translate(42.495 42.495)">
    <g id="Group_3681" data-name="Group 3681" transform="translate(-42.498 -42.501)">
      <path id="Path_9406" data-name="Path 9406" d="M26.6,160.048a1.848,1.848,0,1,1-1.848-1.848,1.848,1.848,0,0,1,1.848,1.848" transform="translate(-20.38 -138.793)" fill="#00c53c"/>
      <path id="Union_108" data-name="Union 108" d="M8.112,23.352a.948.948,0,0,1,.612-1.787,10.1,10.1,0,1,0-5.291-4.2.948.948,0,0,1-1.609,1,12.008,12.008,0,1,1,6.288,4.991ZM4.979,14.88a.9.9,0,0,1,1.7-.588,5.616,5.616,0,0,0,10.621,0,.9.9,0,1,1,1.7.588,7.414,7.414,0,0,1-7.007,5h-.008A7.415,7.415,0,0,1,4.979,14.88Zm9.181-4.751a.744.744,0,0,1-.625-.853,2.7,2.7,0,0,1,5.328,0A.744.744,0,0,1,17.4,9.5a1.212,1.212,0,0,0-2.387,0,.745.745,0,0,1-.732.624Zm-4.8,0A.744.744,0,0,1,8.628,9.5a1.212,1.212,0,0,0-2.389,0,.744.744,0,0,1-1.463-.229,2.7,2.7,0,0,1,5.328,0,.745.745,0,0,1-.624.853Z" transform="translate(0.003 0.006)" fill="#3f3f3f"/>
    </g>
  </g>
</svg>
