<svg xmlns="http://www.w3.org/2000/svg" width="118.523" height="20.226" viewBox="0 0 118.523 20.226">
  <g id="Group_123" data-name="Group 123" transform="translate(0 0)">
    <g id="Group_123-2" data-name="Group 123" transform="translate(22.122)">
      <path id="Path_89" data-name="Path 89" d="M220.49,199.735c-3.874-1.051-3.9-3.016-3.874-4.206.027-1.909,2.325-3.68,5.036-3.68,2.573,0,5.285,1.135,5.313,4.289h-3.626c-.028-.969-.857-1.135-1.466-1.135-.83,0-1.383.388-1.356.969.027.387.36.775,1.135.968l2.186.581c3.127.857,3.514,2.933,3.514,3.763,0,2.74-2.878,4.039-5.59,4.039-2.628,0-5.368-1.577-5.4-4.454h3.6a1.822,1.822,0,0,0,1.909,1.493c.857-.028,1.577-.415,1.577-1.079,0-.554-.332-.857-1.272-1.107Z" transform="translate(-216.367 -185.098)" fill="#3f3f3f"/>
      <path id="Path_90" data-name="Path 90" d="M261.165,190.7h-3.818v-19.95h3.818v10.569l3.072-3.542h4.9l-5.368,5.7,6.446,7.222h-4.731l-4.317-5.119Z" transform="translate(-244.233 -170.752)" fill="#3f3f3f"/>
      <path id="Path_91" data-name="Path 91" d="M306.649,203.581a4.952,4.952,0,0,1-3.763,1.715,6.725,6.725,0,0,1,0-13.447,4.751,4.751,0,0,1,3.763,1.716v-1.44h3.818v12.922h-3.818Zm-3.127-1.937a3.072,3.072,0,1,0,0-6.144,3.076,3.076,0,1,0,0,6.144Z" transform="translate(-270.721 -185.098)" fill="#3f3f3f"/>
      <path id="Path_92" data-name="Path 92" d="M355.474,205.047h-3.847V192.125h3.847v1.882a4.311,4.311,0,0,1,3.735-2.158c2.9,0,4.731,1.8,4.731,5.479v7.72h-3.847v-6.89c0-1.716-.941-2.573-2.241-2.573-1.356,0-2.379.664-2.379,2.628Z" transform="translate(-308.343 -185.098)" fill="#3f3f3f"/>
      <path id="Path_93" data-name="Path 93" d="M408.438,190.7v-1.6a4.257,4.257,0,0,1-3.791,1.881,6.341,6.341,0,0,1-6.254-6.7c0-4.15,2.933-6.778,6.254-6.778a4.239,4.239,0,0,1,3.791,1.853v-8.6h3.819V190.7Zm-3.071-9.574a3.1,3.1,0,0,0,0,6.2,3.01,3.01,0,0,0,2.988-3.127A2.928,2.928,0,0,0,405.367,181.127Z" transform="translate(-340.144 -170.752)" fill="#3f3f3f"/>
      <path id="Path_94" data-name="Path 94" d="M453.618,170.752a2.276,2.276,0,0,1,2.352,2.241,2.3,2.3,0,0,1-2.352,2.27,2.26,2.26,0,1,1,0-4.51Zm1.909,19.95h-3.818V177.779h3.818Z" transform="translate(-376.058 -170.752)" fill="#3f3f3f"/>
      <path id="Path_95" data-name="Path 95" d="M483.69,203.581a4.952,4.952,0,0,1-3.763,1.715,6.725,6.725,0,0,1,0-13.447,4.751,4.751,0,0,1,3.763,1.716v-1.44h3.818v12.922H483.69Zm-3.127-1.937a3.072,3.072,0,1,0,0-6.144,3.076,3.076,0,1,0,0,6.144Z" transform="translate(-391.107 -185.098)" fill="#3f3f3f"/>
    </g>
    <path id="Path_96" data-name="Path 96" d="M147.979,186.846l12.747,12.748a1.377,1.377,0,0,0,2.35-.973V186.515a2.019,2.019,0,0,0-2.019-2.019H148.952A1.377,1.377,0,0,0,147.979,186.846Z" transform="translate(-147.466 -180.098)" fill="#00c83c"/>
    <path id="Path_97" data-name="Path 97" d="M148.1,220.144h0a2.93,2.93,0,0,0,5-2.072h0a2.93,2.93,0,0,0-2.93-2.93h0A2.93,2.93,0,0,0,148.1,220.144Z" transform="translate(-147.238 -200.938)" fill="#00c83c"/>
  </g>
</svg>
